# xmcd CD database file
#
# Track frame offsets:
#	150
#	15375
#	36325
#	56599
#	80102
#	91286
#	110953
#	129488
#	151894
#	180773
#	209304
#	232871
#	262901
#	273700
#	291620
#	309757
#	334220
#
# Disc length: 4571 seconds
#
# Revision: 0
# Processed by: cddbd v1.4PL0 Copyright (c) Steve Scherf et al.
# Submitted via: CDex 1.50Beta7
#
DISCID=eb11d911
DTITLE=Tom Woll - Big Fat Woman
DYEAR=2003
DGENRE=Blues
TTITLE0=all night long
TTITLE1=big fat woman
TTITLE2=jayquila
TTITLE3=mona lee
TTITLE4=gotta go to texas
TTITLE5=cushin for the pushin
TTITLE6=put your blue jeans on
TTITLE7=disco blues
TTITLE8=you got me running
TTITLE9=my favourite kind
TTITLE10=spanish blues affair
TTITLE11=slowmotion lover
TTITLE12=let me love you baby
TTITLE13=rose
TTITLE14=leave that swing alone
TTITLE15=t-bone shuffle
TTITLE16=fritz
EXTD=YEAR: 2003
EXTT0=
EXTT1=
EXTT2=
EXTT3=
EXTT4=
EXTT5=
EXTT6=
EXTT7=
EXTT8=
EXTT9=
EXTT10=
EXTT11=
EXTT12=
EXTT13=
EXTT14=
EXTT15=
EXTT16=
PLAYORDER=
